<svg width="217" height="214" viewBox="0 0 217 214" fill="none" xmlns="http://www.w3.org/2000/svg">
<g id="award-filled">
<g id="Vector">
<path d="M176.276 124.682L194.052 155.052C194.784 156.302 195.197 157.709 195.256 159.152C195.315 160.594 195.019 162.029 194.392 163.334C193.765 164.638 192.827 165.774 191.657 166.642C190.488 167.51 189.122 168.086 187.678 168.32L186.656 168.418L185.644 168.409L159.124 166.715L147.343 190.219C146.703 191.492 145.765 192.596 144.606 193.439C143.447 194.282 142.1 194.84 140.678 195.067C139.256 195.294 137.8 195.182 136.431 194.743C135.061 194.303 133.818 193.547 132.804 192.538L132.063 191.699L131.412 190.719L113.618 160.34C126.144 159.567 138.319 155.946 149.189 149.76C160.06 143.574 169.331 134.991 176.276 124.682Z" fill="#00B488"/>
<path d="M103.346 160.34L85.5703 190.727C84.85 191.959 83.842 193.002 82.6301 193.772C81.4182 194.541 80.0376 195.014 78.603 195.151C77.1684 195.288 75.7214 195.085 74.3824 194.559C73.0434 194.033 71.8511 193.199 70.9048 192.127L70.2176 191.236L69.6389 190.219L57.8486 166.724L31.3475 168.418C29.8877 168.511 28.4269 168.253 27.0902 167.667C25.7535 167.081 24.5807 166.184 23.6724 165.053C22.764 163.923 22.1471 162.592 21.8744 161.174C21.6018 159.757 21.6815 158.296 22.1069 156.915L22.4686 155.961L22.9206 155.07L40.7146 124.673C47.6557 134.982 56.9216 143.566 67.7872 149.756C78.6528 155.945 90.8233 159.561 103.346 160.34Z" fill="#00B488"/>
<path d="M108.5 17.8333L110.67 17.869C127.071 18.4238 142.612 25.2391 154.015 36.8773C165.418 48.5154 171.792 64.0664 171.792 80.25L171.765 81.9709L171.701 83.6829L171.539 85.8675L171.303 88.0253L171.086 89.6125C170.491 93.4613 169.532 97.2467 168.22 100.919L167.171 103.665L165.788 106.768C160.669 117.522 152.546 126.611 142.371 132.97C132.196 139.329 120.393 142.693 108.347 142.667C96.3013 142.64 84.5132 139.225 74.367 132.822C64.2208 126.419 56.1379 117.294 51.0673 106.518L49.8919 103.87L49.4218 102.684L48.6984 100.749L47.8395 98.1279C47.5327 97.1127 47.2523 96.0899 46.9986 95.0606L46.4561 92.6441L46.0131 90.2277L45.8322 88.9883L45.4796 86.1082L45.2626 82.8536L45.2083 80.25C45.2081 64.0664 51.5818 48.5154 62.9849 36.8773C74.3881 25.2391 89.9292 18.4238 106.33 17.869L108.5 17.8333Z" fill="#00B488"/>
<path d="M176.276 124.682L194.052 155.052C194.784 156.302 195.197 157.709 195.256 159.152C195.315 160.594 195.019 162.029 194.392 163.334C193.765 164.638 192.827 165.774 191.657 166.642C190.488 167.51 189.122 168.086 187.678 168.32L186.656 168.418L185.644 168.409L159.124 166.715L147.343 190.219C146.703 191.492 145.765 192.596 144.606 193.439C143.447 194.282 142.1 194.84 140.678 195.067C139.256 195.294 137.8 195.182 136.431 194.743C135.061 194.303 133.818 193.547 132.804 192.538L132.063 191.699L131.412 190.719L113.618 160.34C126.144 159.567 138.319 155.946 149.189 149.76C160.06 143.574 169.331 134.991 176.276 124.682Z" stroke="black"/>
<path d="M103.346 160.34L85.5703 190.727C84.85 191.959 83.842 193.002 82.6301 193.772C81.4182 194.541 80.0376 195.014 78.603 195.151C77.1684 195.288 75.7214 195.085 74.3824 194.559C73.0434 194.033 71.8511 193.199 70.9048 192.127L70.2176 191.236L69.6389 190.219L57.8486 166.724L31.3475 168.418C29.8877 168.511 28.4269 168.253 27.0902 167.667C25.7535 167.081 24.5807 166.184 23.6724 165.053C22.764 163.923 22.1471 162.592 21.8744 161.174C21.6018 159.757 21.6815 158.296 22.1069 156.915L22.4686 155.961L22.9206 155.07L40.7146 124.673C47.6557 134.982 56.9216 143.566 67.7872 149.756C78.6528 155.945 90.8233 159.561 103.346 160.34Z" stroke="black"/>
<path d="M108.5 17.8333L110.67 17.869C127.071 18.4238 142.612 25.2391 154.015 36.8773C165.418 48.5154 171.792 64.0664 171.792 80.25L171.765 81.9709L171.701 83.6829L171.539 85.8675L171.303 88.0253L171.086 89.6125C170.491 93.4613 169.532 97.2467 168.22 100.919L167.171 103.665L165.788 106.768C160.669 117.522 152.546 126.611 142.371 132.97C132.196 139.329 120.393 142.693 108.347 142.667C96.3013 142.64 84.5132 139.225 74.367 132.822C64.2208 126.419 56.1379 117.294 51.0673 106.518L49.8919 103.87L49.4218 102.684L48.6984 100.749L47.8395 98.1279C47.5327 97.1127 47.2523 96.0899 46.9986 95.0606L46.4561 92.6441L46.0131 90.2277L45.8322 88.9883L45.4796 86.1082L45.2626 82.8536L45.2083 80.25C45.2081 64.0664 51.5818 48.5154 62.9849 36.8773C74.3881 25.2391 89.9292 18.4238 106.33 17.869L108.5 17.8333Z" stroke="black"/>
</g>
</g>
</svg>
