<svg width="391" height="114" viewBox="0 0 391 114" fill="none" xmlns="http://www.w3.org/2000/svg">
<path d="M66.3125 59V8.6875H75.625V51.0625H98.0625V59H66.3125ZM99.5625 33.875C99.5625 25.9583 101.562 19.6042 105.562 14.8125C109.562 9.97917 114.833 7.5625 121.375 7.5625C127.958 7.5625 133.229 9.97917 137.188 14.8125C141.188 19.6042 143.188 25.9583 143.188 33.875C143.188 41.7917 141.188 48.1458 137.188 52.9375C133.229 57.7292 127.958 60.125 121.375 60.125C114.792 60.125 109.5 57.7292 105.5 52.9375C101.542 48.1458 99.5625 41.7917 99.5625 33.875ZM109.188 33.875C109.188 39.5 110.25 43.9583 112.375 47.25C114.542 50.5417 117.542 52.1875 121.375 52.1875C125.167 52.1875 128.125 50.5625 130.25 47.3125C132.417 44.0208 133.5 39.5417 133.5 33.875C133.5 28.25 132.438 23.7917 130.312 20.5C128.188 17.2083 125.208 15.5625 121.375 15.5625C117.583 15.5625 114.604 17.2083 112.438 20.5C110.271 23.7917 109.188 28.25 109.188 33.875ZM150.812 59V8.6875H160.125V51.0625H182.562V59H150.812Z" fill="white"/>
<path d="M188.5 59V8.6875H197.812V51.0625H220.25V59H188.5ZM221.5 40.4375C221.5 34.4792 223.125 29.7708 226.375 26.3125C229.667 22.8125 233.792 21.0625 238.75 21.0625C243.583 21.0625 247.604 22.8333 250.812 26.375C254.062 29.9167 255.688 34.5417 255.688 40.25C255.688 41.7917 255.646 42.9375 255.562 43.6875H230.562C230.562 46.2292 231.333 48.4167 232.875 50.25C234.458 52.0833 236.604 53 239.312 53C241.229 53 242.917 52.5208 244.375 51.5625C245.875 50.5625 247 49.3125 247.75 47.8125L255.188 50.4375C254.021 53.1875 252.042 55.5 249.25 57.375C246.5 59.2083 243.104 60.125 239.062 60.125C233.896 60.125 229.667 58.3542 226.375 54.8125C223.125 51.2292 221.5 46.4375 221.5 40.4375ZM230.625 37.5H246.625C246.625 34.9167 245.917 32.7083 244.5 30.875C243.125 29.0417 241.208 28.125 238.75 28.125C236.25 28.125 234.271 29.0625 232.812 30.9375C231.396 32.7708 230.667 34.9583 230.625 37.5ZM261.75 59V22.1875H270.375V26.25C271 25 272.125 23.8333 273.75 22.75C275.417 21.625 277.562 21.0625 280.188 21.0625C288.229 21.0625 292.25 25.8333 292.25 35.375V59H283.375V36.4375C283.375 33.6042 282.938 31.6042 282.062 30.4375C281.188 29.2708 279.896 28.6875 278.188 28.6875C276.021 28.6875 274.229 29.5625 272.812 31.3125C271.396 33.0625 270.688 35.25 270.688 37.875V59H261.75ZM297.312 51.1875L303.625 47.4375C306.125 51.1042 309.354 52.9375 313.312 52.9375C315.104 52.9375 316.5 52.5833 317.5 51.875C318.542 51.125 319.062 50.1667 319.062 49C319.062 48.625 319 48.2917 318.875 48C318.792 47.6667 318.625 47.3542 318.375 47.0625C318.125 46.7708 317.896 46.5208 317.688 46.3125C317.479 46.1042 317.125 45.875 316.625 45.625C316.167 45.375 315.792 45.1875 315.5 45.0625C315.208 44.8958 314.75 44.7083 314.125 44.5C313.5 44.25 313.021 44.0833 312.688 44C312.354 43.875 311.812 43.7083 311.062 43.5C310.312 43.25 309.771 43.0625 309.438 42.9375C306.271 41.8958 303.729 40.5625 301.812 38.9375C299.896 37.3125 298.938 34.9583 298.938 31.875C298.938 28.5833 300.354 25.9583 303.188 24C306.021 22.0417 309.417 21.0625 313.375 21.0625C316.458 21.0625 319.354 21.8542 322.062 23.4375C324.771 25.0208 326.792 27.0833 328.125 29.625L322.25 33.1875C319.667 29.8958 316.729 28.25 313.438 28.25C311.729 28.25 310.396 28.6042 309.438 29.3125C308.521 29.9792 308.062 30.875 308.062 32C308.062 32.375 308.104 32.7292 308.188 33.0625C308.312 33.3958 308.5 33.7083 308.75 34C309 34.2917 309.229 34.5625 309.438 34.8125C309.688 35.0208 310.021 35.25 310.438 35.5C310.896 35.75 311.271 35.9583 311.562 36.125C311.896 36.25 312.354 36.4167 312.938 36.625C313.521 36.8333 313.979 37 314.312 37.125C314.646 37.2083 315.146 37.375 315.812 37.625C316.479 37.8333 316.958 37.9792 317.25 38.0625C324.542 40.4792 328.188 44.1458 328.188 49.0625C328.188 52.1458 326.917 54.7708 324.375 56.9375C321.833 59.0625 318.229 60.125 313.562 60.125C309.938 60.125 306.688 59.3125 303.812 57.6875C300.979 56.0625 298.812 53.8958 297.312 51.1875Z" fill="#037055"/>
<ellipse cx="123" cy="34" rx="4" ry="6" fill="white"/>
<rect x="101" y="7.92834" width="3" height="8" transform="rotate(-40 101 7.92834)" fill="white"/>
<rect x="113" y="1.52094" width="3" height="8" transform="rotate(-10 113 1.52094)" fill="white"/>
<rect x="125.316" y="1.01428" width="3" height="8" transform="rotate(9 125.316 1.01428)" fill="white"/>
<rect x="136.589" y="5" width="3" height="8" transform="rotate(35 136.589 5)" fill="white"/>
<path d="M94.25 78V69.0586H95.3867V77.0273H99.5703V78H94.25ZM99.9102 74.7305C99.9102 73.7148 100.188 72.8945 100.742 72.2695C101.297 71.6445 102.008 71.332 102.875 71.332C103.742 71.332 104.434 71.6406 104.949 72.2578C105.473 72.875 105.734 73.6641 105.734 74.625C105.734 74.75 105.727 74.9219 105.711 75.1406H101.023C101.023 75.7344 101.191 76.2461 101.527 76.6758C101.871 77.0977 102.34 77.3086 102.934 77.3086C103.73 77.3086 104.312 76.9648 104.68 76.2773L105.605 76.5703C105.402 77.0469 105.07 77.4414 104.609 77.7539C104.156 78.0586 103.594 78.2109 102.922 78.2109C102.023 78.2109 101.297 77.8945 100.742 77.2617C100.188 76.6211 99.9102 75.7773 99.9102 74.7305ZM101.047 74.332H104.621C104.621 73.7461 104.465 73.25 104.152 72.8438C103.84 72.4375 103.414 72.2344 102.875 72.2344C102.328 72.2344 101.891 72.4453 101.562 72.8672C101.234 73.2812 101.062 73.7695 101.047 74.332ZM107.762 76.2891C107.762 76.5703 107.879 76.8086 108.113 77.0039C108.348 77.1992 108.664 77.2969 109.062 77.2969C109.594 77.2969 110.043 77.125 110.41 76.7812C110.785 76.4375 110.973 75.9961 110.973 75.457V74.6602C110.66 74.7383 110.152 74.832 109.449 74.9414C108.324 75.1289 107.762 75.5781 107.762 76.2891ZM106.66 76.3828C106.66 75.1719 107.578 74.4258 109.414 74.1445C110.211 74.0195 110.73 73.918 110.973 73.8398V73.4766C110.973 73.1016 110.84 72.7969 110.574 72.5625C110.316 72.3281 109.949 72.2109 109.473 72.2109C109.098 72.2109 108.734 72.3008 108.383 72.4805C108.039 72.6523 107.75 72.8828 107.516 73.1719L106.824 72.5859C107.145 72.2031 107.535 71.8984 107.996 71.6719C108.457 71.4453 108.941 71.332 109.449 71.332C111.191 71.332 112.062 72.1914 112.062 73.9102V78H111.008V77.0273C110.875 77.3477 110.621 77.625 110.246 77.8594C109.871 78.0938 109.43 78.2109 108.922 78.2109C108.211 78.2109 107.656 78.043 107.258 77.707C106.859 77.3633 106.66 76.9219 106.66 76.3828ZM113.773 78V71.543H114.828V72.3984C114.953 72.125 115.16 71.8789 115.449 71.6602C115.738 71.4414 116.098 71.332 116.527 71.332C116.855 71.332 117.152 71.3867 117.418 71.4961V72.4922C117.137 72.3828 116.84 72.3281 116.527 72.3281C116.004 72.3281 115.598 72.5273 115.309 72.9258C115.027 73.3242 114.887 73.8516 114.887 74.5078V78H113.773ZM118.273 78V71.543H119.352V72.5508H119.363C119.465 72.2617 119.688 71.9883 120.031 71.7305C120.383 71.4648 120.812 71.332 121.32 71.332C121.938 71.332 122.438 71.5234 122.82 71.9062C123.211 72.2891 123.406 72.9297 123.406 73.8281V78H122.293V74.0039C122.293 72.8398 121.887 72.2578 121.074 72.2578C120.613 72.2578 120.215 72.4492 119.879 72.832C119.551 73.207 119.387 73.6602 119.387 74.1914V78H118.273ZM125.199 70.2656V68.9297H126.5V70.2656H125.199ZM125.316 78V71.543H126.395V78H125.316ZM128.375 78V71.543H129.453V72.5508H129.465C129.566 72.2617 129.789 71.9883 130.133 71.7305C130.484 71.4648 130.914 71.332 131.422 71.332C132.039 71.332 132.539 71.5234 132.922 71.9062C133.312 72.2891 133.508 72.9297 133.508 73.8281V78H132.395V74.0039C132.395 72.8398 131.988 72.2578 131.176 72.2578C130.715 72.2578 130.316 72.4492 129.98 72.832C129.652 73.207 129.488 73.6602 129.488 74.1914V78H128.375ZM135.922 74.6484C135.922 75.375 136.078 75.957 136.391 76.3945C136.703 76.8242 137.109 77.0391 137.609 77.0391C138.109 77.0391 138.508 76.8281 138.805 76.4062C139.109 75.9844 139.262 75.3945 139.262 74.6367C139.262 73.8945 139.109 73.3125 138.805 72.8906C138.5 72.4688 138.105 72.2578 137.621 72.2578C137.105 72.2578 136.691 72.4805 136.379 72.9258C136.074 73.3711 135.922 73.9453 135.922 74.6484ZM134.809 74.6602C134.809 73.6602 135.059 72.8555 135.559 72.2461C136.059 71.6367 136.699 71.332 137.48 71.332C137.941 71.332 138.32 71.4531 138.617 71.6953C138.922 71.9297 139.137 72.1953 139.262 72.4922V71.543H140.352V77.1914C140.352 78.4102 140.125 79.3164 139.672 79.9102C139.227 80.5039 138.523 80.8008 137.562 80.8008C136.508 80.8008 135.691 80.4023 135.113 79.6055L135.863 79.1016C136.34 79.6406 136.914 79.9102 137.586 79.9102C138.102 79.9102 138.508 79.7109 138.805 79.3125C139.102 78.9141 139.254 78.3867 139.262 77.7305C139.262 77.6211 139.262 77.4688 139.262 77.2734C139.27 77.0781 139.273 76.9414 139.273 76.8633C139.117 77.1836 138.887 77.4492 138.582 77.6602C138.277 77.8633 137.922 77.9648 137.516 77.9648C136.703 77.9648 136.047 77.6602 135.547 77.0508C135.055 76.4336 134.809 75.6367 134.809 74.6602ZM144.465 72.4688V71.543H145.531V70.6523C145.531 70.0039 145.691 69.5234 146.012 69.2109C146.34 68.8984 146.789 68.7422 147.359 68.7422H148.262V69.6562H147.512C146.926 69.6562 146.633 70.0195 146.633 70.7461V71.543H148.109V72.4688H146.633V78H145.531V72.4688H144.465ZM149.199 78V71.543H150.254V72.3984C150.379 72.125 150.586 71.8789 150.875 71.6602C151.164 71.4414 151.523 71.332 151.953 71.332C152.281 71.332 152.578 71.3867 152.844 71.4961V72.4922C152.562 72.3828 152.266 72.3281 151.953 72.3281C151.43 72.3281 151.023 72.5273 150.734 72.9258C150.453 73.3242 150.312 73.8516 150.312 74.5078V78H149.199ZM154.414 74.7773C154.414 75.5664 154.59 76.1836 154.941 76.6289C155.293 77.0664 155.723 77.2852 156.23 77.2852C156.73 77.2852 157.156 77.0664 157.508 76.6289C157.859 76.1836 158.035 75.5664 158.035 74.7773C158.035 73.9727 157.859 73.3516 157.508 72.9141C157.156 72.4766 156.73 72.2578 156.23 72.2578C155.73 72.2578 155.301 72.4766 154.941 72.9141C154.59 73.3438 154.414 73.9648 154.414 74.7773ZM153.289 74.7773C153.289 73.8008 153.543 72.9844 154.051 72.3281C154.559 71.6641 155.285 71.332 156.23 71.332C157.16 71.332 157.879 71.6641 158.387 72.3281C158.902 72.9844 159.16 73.8008 159.16 74.7773C159.16 75.1836 159.105 75.5781 158.996 75.9609C158.895 76.3438 158.734 76.7109 158.516 77.0625C158.305 77.4062 158 77.6836 157.602 77.8945C157.203 78.1055 156.746 78.2109 156.23 78.2109C155.715 78.2109 155.258 78.1094 154.859 77.9062C154.469 77.6953 154.16 77.418 153.934 77.0742C153.715 76.7305 153.551 76.3672 153.441 75.9844C153.34 75.5938 153.289 75.1914 153.289 74.7773ZM160.52 78V71.543H161.598V72.4336C161.715 72.168 161.926 71.918 162.23 71.6836C162.535 71.4492 162.914 71.332 163.367 71.332C164.125 71.332 164.664 71.7773 164.984 72.668C165.031 72.5586 165.098 72.4453 165.184 72.3281C165.27 72.2031 165.391 72.0586 165.547 71.8945C165.703 71.7305 165.91 71.5977 166.168 71.4961C166.434 71.3867 166.719 71.332 167.023 71.332C168.297 71.332 168.934 72.1641 168.934 73.8281V78H167.832V73.8984C167.832 73.3594 167.758 72.9531 167.609 72.6797C167.461 72.3984 167.184 72.2578 166.777 72.2578C166.348 72.2578 165.988 72.4414 165.699 72.8086C165.41 73.168 165.266 73.6211 165.266 74.168V78H164.188V73.875C164.188 72.7969 163.832 72.2578 163.121 72.2578C162.66 72.2578 162.297 72.4297 162.031 72.7734C161.766 73.1172 161.633 73.5664 161.633 74.1211V78H160.52ZM174.254 76.2891C174.254 76.5703 174.371 76.8086 174.605 77.0039C174.84 77.1992 175.156 77.2969 175.555 77.2969C176.086 77.2969 176.535 77.125 176.902 76.7812C177.277 76.4375 177.465 75.9961 177.465 75.457V74.6602C177.152 74.7383 176.645 74.832 175.941 74.9414C174.816 75.1289 174.254 75.5781 174.254 76.2891ZM173.152 76.3828C173.152 75.1719 174.07 74.4258 175.906 74.1445C176.703 74.0195 177.223 73.918 177.465 73.8398V73.4766C177.465 73.1016 177.332 72.7969 177.066 72.5625C176.809 72.3281 176.441 72.2109 175.965 72.2109C175.59 72.2109 175.227 72.3008 174.875 72.4805C174.531 72.6523 174.242 72.8828 174.008 73.1719L173.316 72.5859C173.637 72.2031 174.027 71.8984 174.488 71.6719C174.949 71.4453 175.434 71.332 175.941 71.332C177.684 71.332 178.555 72.1914 178.555 73.9102V78H177.5V77.0273C177.367 77.3477 177.113 77.625 176.738 77.8594C176.363 78.0938 175.922 78.2109 175.414 78.2109C174.703 78.2109 174.148 78.043 173.75 77.707C173.352 77.3633 173.152 76.9219 173.152 76.3828ZM182.785 74.7656C182.785 73.7031 183.043 72.8672 183.559 72.2578C184.074 71.6406 184.727 71.332 185.516 71.332C185.953 71.332 186.336 71.4531 186.664 71.6953C186.992 71.9375 187.227 72.2148 187.367 72.5273V68.7422H188.457V78H187.402V76.9453C187.246 77.3047 187 77.6055 186.664 77.8477C186.328 78.0898 185.945 78.2109 185.516 78.2109C185.188 78.2109 184.867 78.1445 184.555 78.0117C184.242 77.8867 183.949 77.6953 183.676 77.4375C183.41 77.1719 183.195 76.8086 183.031 76.3477C182.867 75.8867 182.785 75.3594 182.785 74.7656ZM183.91 74.7656C183.91 75.5391 184.07 76.1523 184.391 76.6055C184.711 77.0586 185.133 77.2852 185.656 77.2852C186.141 77.2852 186.551 77.0586 186.887 76.6055C187.223 76.1523 187.391 75.5391 187.391 74.7656C187.391 74.0078 187.223 73.4023 186.887 72.9492C186.559 72.4883 186.148 72.2578 185.656 72.2578C185.125 72.2578 184.699 72.4883 184.379 72.9492C184.066 73.4102 183.91 74.0156 183.91 74.7656ZM190.402 70.2656V68.9297H191.703V70.2656H190.402ZM190.52 78V71.543H191.598V78H190.52ZM192.969 72.4688V71.543H194.035V70.6523C194.035 70.0039 194.195 69.5234 194.516 69.2109C194.844 68.8984 195.293 68.7422 195.863 68.7422H196.766V69.6562H196.016C195.43 69.6562 195.137 70.0195 195.137 70.7461V71.543H196.613V72.4688H195.137V78H194.035V72.4688H192.969ZM197.094 72.4688V71.543H198.16V70.6523C198.16 70.0039 198.32 69.5234 198.641 69.2109C198.969 68.8984 199.418 68.7422 199.988 68.7422H200.891V69.6562H200.141C199.555 69.6562 199.262 70.0195 199.262 70.7461V71.543H200.738V72.4688H199.262V78H198.16V72.4688H197.094ZM201.418 74.7305C201.418 73.7148 201.695 72.8945 202.25 72.2695C202.805 71.6445 203.516 71.332 204.383 71.332C205.25 71.332 205.941 71.6406 206.457 72.2578C206.98 72.875 207.242 73.6641 207.242 74.625C207.242 74.75 207.234 74.9219 207.219 75.1406H202.531C202.531 75.7344 202.699 76.2461 203.035 76.6758C203.379 77.0977 203.848 77.3086 204.441 77.3086C205.238 77.3086 205.82 76.9648 206.188 76.2773L207.113 76.5703C206.91 77.0469 206.578 77.4414 206.117 77.7539C205.664 78.0586 205.102 78.2109 204.43 78.2109C203.531 78.2109 202.805 77.8945 202.25 77.2617C201.695 76.6211 201.418 75.7773 201.418 74.7305ZM202.555 74.332H206.129C206.129 73.7461 205.973 73.25 205.66 72.8438C205.348 72.4375 204.922 72.2344 204.383 72.2344C203.836 72.2344 203.398 72.4453 203.07 72.8672C202.742 73.2812 202.57 73.7695 202.555 74.332ZM208.59 78V71.543H209.645V72.3984C209.77 72.125 209.977 71.8789 210.266 71.6602C210.555 71.4414 210.914 71.332 211.344 71.332C211.672 71.332 211.969 71.3867 212.234 71.4961V72.4922C211.953 72.3828 211.656 72.3281 211.344 72.3281C210.82 72.3281 210.414 72.5273 210.125 72.9258C209.844 73.3242 209.703 73.8516 209.703 74.5078V78H208.59ZM212.68 74.7305C212.68 73.7148 212.957 72.8945 213.512 72.2695C214.066 71.6445 214.777 71.332 215.645 71.332C216.512 71.332 217.203 71.6406 217.719 72.2578C218.242 72.875 218.504 73.6641 218.504 74.625C218.504 74.75 218.496 74.9219 218.48 75.1406H213.793C213.793 75.7344 213.961 76.2461 214.297 76.6758C214.641 77.0977 215.109 77.3086 215.703 77.3086C216.5 77.3086 217.082 76.9648 217.449 76.2773L218.375 76.5703C218.172 77.0469 217.84 77.4414 217.379 77.7539C216.926 78.0586 216.363 78.2109 215.691 78.2109C214.793 78.2109 214.066 77.8945 213.512 77.2617C212.957 76.6211 212.68 75.7773 212.68 74.7305ZM213.816 74.332H217.391C217.391 73.7461 217.234 73.25 216.922 72.8438C216.609 72.4375 216.184 72.2344 215.645 72.2344C215.098 72.2344 214.66 72.4453 214.332 72.8672C214.004 73.2812 213.832 73.7695 213.816 74.332ZM219.852 78V71.543H220.93V72.5508H220.941C221.043 72.2617 221.266 71.9883 221.609 71.7305C221.961 71.4648 222.391 71.332 222.898 71.332C223.516 71.332 224.016 71.5234 224.398 71.9062C224.789 72.2891 224.984 72.9297 224.984 73.8281V78H223.871V74.0039C223.871 72.8398 223.465 72.2578 222.652 72.2578C222.191 72.2578 221.793 72.4492 221.457 72.832C221.129 73.207 220.965 73.6602 220.965 74.1914V78H219.852ZM225.957 72.4688V71.543H227.047V69.5273H228.148V71.543H229.766V72.4688H228.148V76.043C228.148 76.4102 228.219 76.6719 228.359 76.8281C228.5 76.9844 228.723 77.0625 229.027 77.0625H229.777V78H228.887C227.66 78 227.047 77.3789 227.047 76.1367V72.4688H225.957ZM235.109 74.7656C235.109 75.5234 235.258 76.1328 235.555 76.5938C235.859 77.0547 236.281 77.2852 236.82 77.2852C237.328 77.2852 237.746 77.0625 238.074 76.6172C238.41 76.1641 238.578 75.5469 238.578 74.7656C238.578 74.0234 238.418 73.4219 238.098 72.9609C237.785 72.4922 237.359 72.2578 236.82 72.2578C236.305 72.2578 235.891 72.4922 235.578 72.9609C235.266 73.4297 235.109 74.0312 235.109 74.7656ZM234.02 80.7539V71.543H235.074V72.5977C235.254 72.2227 235.508 71.918 235.836 71.6836C236.172 71.4492 236.551 71.332 236.973 71.332C237.762 71.332 238.41 71.6445 238.918 72.2695C239.434 72.8867 239.691 73.7188 239.691 74.7656C239.691 75.8906 239.418 76.7461 238.871 77.332C238.332 77.918 237.699 78.2109 236.973 78.2109C236.512 78.2109 236.121 78.0977 235.801 77.8711C235.48 77.6367 235.25 77.3516 235.109 77.0156V80.7539H234.02ZM240.652 74.7305C240.652 73.7148 240.93 72.8945 241.484 72.2695C242.039 71.6445 242.75 71.332 243.617 71.332C244.484 71.332 245.176 71.6406 245.691 72.2578C246.215 72.875 246.477 73.6641 246.477 74.625C246.477 74.75 246.469 74.9219 246.453 75.1406H241.766C241.766 75.7344 241.934 76.2461 242.27 76.6758C242.613 77.0977 243.082 77.3086 243.676 77.3086C244.473 77.3086 245.055 76.9648 245.422 76.2773L246.348 76.5703C246.145 77.0469 245.812 77.4414 245.352 77.7539C244.898 78.0586 244.336 78.2109 243.664 78.2109C242.766 78.2109 242.039 77.8945 241.484 77.2617C240.93 76.6211 240.652 75.7773 240.652 74.7305ZM241.789 74.332H245.363C245.363 73.7461 245.207 73.25 244.895 72.8438C244.582 72.4375 244.156 72.2344 243.617 72.2344C243.07 72.2344 242.633 72.4453 242.305 72.8672C241.977 73.2812 241.805 73.7695 241.789 74.332ZM247.824 78V71.543H248.879V72.3984C249.004 72.125 249.211 71.8789 249.5 71.6602C249.789 71.4414 250.148 71.332 250.578 71.332C250.906 71.332 251.203 71.3867 251.469 71.4961V72.4922C251.188 72.3828 250.891 72.3281 250.578 72.3281C250.055 72.3281 249.648 72.5273 249.359 72.9258C249.078 73.3242 248.938 73.8516 248.938 74.5078V78H247.824ZM251.82 76.6992L252.629 76.2305C253.09 76.9414 253.707 77.2969 254.48 77.2969C254.918 77.2969 255.27 77.2148 255.535 77.0508C255.801 76.8867 255.934 76.6562 255.934 76.3594C255.934 76.25 255.914 76.1484 255.875 76.0547C255.844 75.9609 255.773 75.875 255.664 75.7969C255.562 75.7109 255.473 75.6445 255.395 75.5977C255.324 75.543 255.188 75.4805 254.984 75.4102C254.789 75.3398 254.641 75.2891 254.539 75.2578C254.445 75.2266 254.266 75.168 254 75.082C253.719 74.9961 253.48 74.9102 253.285 74.8242C253.098 74.7305 252.895 74.6133 252.676 74.4727C252.465 74.3242 252.305 74.1406 252.195 73.9219C252.086 73.7031 252.031 73.4531 252.031 73.1719C252.031 72.625 252.254 72.1836 252.699 71.8477C253.152 71.5039 253.746 71.332 254.48 71.332C255.012 71.332 255.504 71.4727 255.957 71.7539C256.41 72.0273 256.738 72.3633 256.941 72.7617L256.203 73.2305C256.023 72.957 255.785 72.7266 255.488 72.5391C255.191 72.3438 254.859 72.2461 254.492 72.2461C254.055 72.2461 253.719 72.332 253.484 72.5039C253.258 72.668 253.145 72.8945 253.145 73.1836C253.145 73.3555 253.188 73.5117 253.273 73.6523C253.367 73.7852 253.516 73.9062 253.719 74.0156C253.922 74.1172 254.094 74.1953 254.234 74.25C254.383 74.3047 254.598 74.375 254.879 74.4609C255.168 74.5469 255.418 74.6367 255.629 74.7305C255.848 74.8242 256.074 74.9453 256.309 75.0938C256.543 75.2422 256.723 75.4258 256.848 75.6445C256.98 75.8633 257.047 76.1055 257.047 76.3711C257.047 76.8867 256.82 77.3242 256.367 77.6836C255.914 78.0352 255.289 78.2109 254.492 78.2109C253.898 78.2109 253.371 78.0781 252.91 77.8125C252.449 77.5469 252.086 77.1758 251.82 76.6992ZM259.484 74.7656C259.484 75.5234 259.633 76.1328 259.93 76.5938C260.234 77.0547 260.656 77.2852 261.195 77.2852C261.703 77.2852 262.121 77.0625 262.449 76.6172C262.785 76.1641 262.953 75.5469 262.953 74.7656C262.953 74.0234 262.793 73.4219 262.473 72.9609C262.16 72.4922 261.734 72.2578 261.195 72.2578C260.68 72.2578 260.266 72.4922 259.953 72.9609C259.641 73.4297 259.484 74.0312 259.484 74.7656ZM258.395 80.7539V71.543H259.449V72.5977C259.629 72.2227 259.883 71.918 260.211 71.6836C260.547 71.4492 260.926 71.332 261.348 71.332C262.137 71.332 262.785 71.6445 263.293 72.2695C263.809 72.8867 264.066 73.7188 264.066 74.7656C264.066 75.8906 263.793 76.7461 263.246 77.332C262.707 77.918 262.074 78.2109 261.348 78.2109C260.887 78.2109 260.496 78.0977 260.176 77.8711C259.855 77.6367 259.625 77.3516 259.484 77.0156V80.7539H258.395ZM265.027 74.7305C265.027 73.7148 265.305 72.8945 265.859 72.2695C266.414 71.6445 267.125 71.332 267.992 71.332C268.859 71.332 269.551 71.6406 270.066 72.2578C270.59 72.875 270.852 73.6641 270.852 74.625C270.852 74.75 270.844 74.9219 270.828 75.1406H266.141C266.141 75.7344 266.309 76.2461 266.645 76.6758C266.988 77.0977 267.457 77.3086 268.051 77.3086C268.848 77.3086 269.43 76.9648 269.797 76.2773L270.723 76.5703C270.52 77.0469 270.188 77.4414 269.727 77.7539C269.273 78.0586 268.711 78.2109 268.039 78.2109C267.141 78.2109 266.414 77.8945 265.859 77.2617C265.305 76.6211 265.027 75.7773 265.027 74.7305ZM266.164 74.332H269.738C269.738 73.7461 269.582 73.25 269.27 72.8438C268.957 72.4375 268.531 72.2344 267.992 72.2344C267.445 72.2344 267.008 72.4453 266.68 72.8672C266.352 73.2812 266.18 73.7695 266.164 74.332ZM271.789 74.7773C271.789 73.7461 272.055 72.9141 272.586 72.2812C273.117 71.6484 273.824 71.332 274.707 71.332C275.309 71.332 275.816 71.5078 276.23 71.8594C276.652 72.2109 276.93 72.6211 277.062 73.0898L276.125 73.3594C276.016 73.0547 275.836 72.7969 275.586 72.5859C275.336 72.3672 275.047 72.2578 274.719 72.2578C274.164 72.2578 273.723 72.4961 273.395 72.9727C273.074 73.4492 272.914 74.0508 272.914 74.7773C272.914 75.5508 273.082 76.1641 273.418 76.6172C273.762 77.0625 274.195 77.2852 274.719 77.2852C275.078 77.2852 275.398 77.168 275.68 76.9336C275.969 76.6914 276.172 76.4141 276.289 76.1016L277.227 76.3828C277.07 76.875 276.762 77.3047 276.301 77.6719C275.848 78.0312 275.316 78.2109 274.707 78.2109C273.84 78.2109 273.137 77.9023 272.598 77.2852C272.059 76.6602 271.789 75.8242 271.789 74.7773ZM277.707 72.4688V71.543H278.797V69.5273H279.898V71.543H281.516V72.4688H279.898V76.043C279.898 76.4102 279.969 76.6719 280.109 76.8281C280.25 76.9844 280.473 77.0625 280.777 77.0625H281.527V78H280.637C279.41 78 278.797 77.3789 278.797 76.1367V72.4688H277.707ZM282.863 70.2656V68.9297H284.164V70.2656H282.863ZM282.98 78V71.543H284.059V78H282.98ZM285.242 71.543H286.461L287.703 75.3281C287.781 75.5703 287.883 75.9102 288.008 76.3477C288.133 76.7852 288.199 77.0234 288.207 77.0625H288.23C288.285 76.8594 288.375 76.5508 288.5 76.1367C288.633 75.7227 288.719 75.4531 288.758 75.3281L289.988 71.543H291.195L288.875 78H287.574L285.242 71.543ZM291.629 74.7305C291.629 73.7148 291.906 72.8945 292.461 72.2695C293.016 71.6445 293.727 71.332 294.594 71.332C295.461 71.332 296.152 71.6406 296.668 72.2578C297.191 72.875 297.453 73.6641 297.453 74.625C297.453 74.75 297.445 74.9219 297.43 75.1406H292.742C292.742 75.7344 292.91 76.2461 293.246 76.6758C293.59 77.0977 294.059 77.3086 294.652 77.3086C295.449 77.3086 296.031 76.9648 296.398 76.2773L297.324 76.5703C297.121 77.0469 296.789 77.4414 296.328 77.7539C295.875 78.0586 295.312 78.2109 294.641 78.2109C293.742 78.2109 293.016 77.8945 292.461 77.2617C291.906 76.6211 291.629 75.7773 291.629 74.7305ZM292.766 74.332H296.34C296.34 73.7461 296.184 73.25 295.871 72.8438C295.559 72.4375 295.133 72.2344 294.594 72.2344C294.047 72.2344 293.609 72.4453 293.281 72.8672C292.953 73.2812 292.781 73.7695 292.766 74.332Z" fill="white"/>
</svg>
